<svg width="800" height="800" xmlns="http://www.w3.org/2000/svg" style="vector-effect: non-scaling-stroke;" preserveAspectRatio="xMidYMid meet" version="1.0">

 <g>
  <title>Layer 1</title>
  <g id="svg_1" fill="#000000" transform="translate(0, 800) scale(0.1, -0.1)">
   <path id="svg_2" d="m3222.14622,7920.76142c-979.28544,-193.33331 -1934.34827,-818.21417 -2505.30974,-1646.78549c-252.6072,-362.49995 -508.67477,-914.88083 -619.40669,-1325.7141c-83.04894,-307.26186 -93.43006,-397.02375 -93.43006,-959.76177c0,-569.64278 10.38112,-649.04753 96.89043,-966.66653c404.86359,-1484.5236 1647.13734,-2658.33296 3097.03345,-2931.07102c145.33565,-27.61904 352.958,-58.69047 463.68992,-69.04761l197.24124,-20.71428l0,517.85707l0,517.85707l-148.79602,0c-418.70508,0 -1145.38332,296.90472 -1591.77138,652.49991c-408.32396,324.52376 -792.42532,887.26178 -972.36469,1425.83314c-128.03379,390.11899 -162.63751,1063.33319 -76.1282,1477.61884c266.44869,1256.66649 1325.3227,2216.42826 2581.43794,2340.71396c124.57341,13.80952 221.46384,34.5238 218.00347,51.78571c-6.92075,13.80952 -10.38112,241.66663 -10.38112,507.49993l0,483.33327l-197.24124,-3.45238c-110.73192,0 -307.97316,-24.16666 -439.46732,-51.78571zm-2640.26427,-3814.88042c58.82633,-82.85713 62.28671,-103.57141 20.76224,-189.88093c-65.74708,-138.09522 -273.36943,-162.26188 -356.41837,-41.42857c-76.1282,103.57141 -69.20745,186.42855 17.30186,272.73806c93.43006,93.21427 228.38459,72.49999 318.35428,-41.42857z"/>
   <path id="svg_3" d="m4135.68458,7461.59482l0,-510.95231l238.76571,-20.71428c321.81465,-27.61904 823.56867,-196.78569 1162.68518,-397.02375c373.72024,-220.95235 882.39501,-728.45228 1079.63624,-1077.14271c882.39501,-1574.2855 166.09788,-3552.49951 -1526.0243,-4225.7137c-262.98832,-107.02379 -629.78781,-193.33331 -820.1083,-193.33331l-124.57341,0l-24.22261,-210.59521c-27.68298,-293.45234 -27.68298,-825.11893 6.92075,-825.11893c13.84149,0 166.09788,17.2619 335.65614,34.5238c913.53836,103.57141 1671.35995,472.97612 2339.21186,1135.83318c605.5652,604.16658 986.20618,1298.09506 1155.76444,2102.49971c69.20745,334.88091 69.20745,1087.49985 -3.46037,1456.90456c-221.46384,1173.80936 -1065.79475,2278.57111 -2159.27248,2830.95199c-498.29365,248.57139 -1090.01736,414.28566 -1491.42058,414.28566l-169.55826,0l0,-514.40469zm3598.78747,-3317.73763c134.95453,-134.64284 48.44522,-345.23805 -141.87528,-345.23805c-121.11304,0 -204.16198,82.85713 -204.16198,196.78569c0,196.78569 211.08273,283.0952 346.03726,148.45236z"/>
   <path id="svg_4" d="m3900.37925,6332.6664c-20.76224,-34.5238 -13.84149,-103.57141 13.84149,-182.97617c24.22261,-69.04761 44.98484,-220.95235 48.44522,-341.78567c0,-158.8095 10.38112,-217.49997 44.98484,-207.14283c27.68298,10.35714 44.98484,103.57141 51.90559,272.73806c3.46037,141.5476 24.22261,289.99996 48.44522,331.42853c27.68298,58.69047 27.68298,89.76189 -6.92075,131.19046c-55.36596,69.04761 -162.63751,65.59523 -200.70161,-3.45238z"/>
   <path id="svg_5" d="m3789.64732,4351.00001c-162.63751,-162.26188 -24.22261,-483.33327 207.62235,-483.33327c238.76571,0 370.25987,314.16662 197.24124,476.42851c-103.81118,100.11903 -307.97316,103.57141 -404.86359,6.90476z"/>
   <path id="svg_6" d="m1253.19423,4123.1429c-13.84149,-13.80952 -24.22261,-44.88095 -24.22261,-72.49999c0,-37.97619 110.73192,-44.88095 581.34259,-37.97619c487.91253,10.35714 577.88222,17.2619 577.88222,62.14285c0,44.88095 -89.96969,51.78571 -557.11998,62.14285c-304.51279,3.45238 -564.04073,-3.45238 -577.88222,-13.80952z"/>
   <path id="svg_7" d="m5606.34292,4105.881c-55.36596,-82.85713 62.28671,-100.11903 626.32744,-93.21427c491.37291,10.35714 584.80296,17.2619 584.80296,62.14285c0,44.88095 -93.43006,51.78571 -595.18408,62.14285c-408.32396,6.90476 -602.10483,-3.45238 -615.94632,-31.07142z"/>
   <path id="svg_8" d="m3685.83615,2438.38123l0,-155.35712l-214.5431,-10.35714c-166.09788,-6.90476 -218.00347,-24.16666 -218.00347,-62.14285c0,-44.88095 107.27155,-51.78571 743.9801,-51.78571c636.70855,0 743.9801,6.90476 743.9801,51.78571c0,37.97619 -51.90559,55.23809 -214.5431,62.14285l-214.5431,10.35714l-10.38112,144.99998l-10.38112,144.99998l-301.05241,10.35714l-304.51279,10.35714l0,-155.35712z"/>
   <path id="svg_9" d="m3305.19516,1917.07178c-24.22261,-27.61904 -34.60373,-75.95237 -20.76224,-103.57141c13.84149,-44.88095 124.57341,-51.78571 709.37638,-51.78571c602.10483,0 692.07451,6.90476 709.37638,55.23809c51.90559,134.64284 -27.68298,151.90474 -705.916,151.90474c-532.89738,0 -657.47079,-10.35714 -692.07451,-51.78571z"/>
  </g>
 </g>
</svg>